<svg xmlns="http://www.w3.org/2000/svg" viewBox="0 0 123.96 14.77"><defs><style>.cls-1{fill:#fff;}.cls-2{fill:#f9ba2c;}</style></defs><title>Alpha logo</title><g id="Layer_2" data-name="Layer 2"><g id="Layer_1-2" data-name="Layer 1"><path class="cls-1" d="M37.87,11.44l-1.42,3.33H33.86L40.38,0h2.55l6.45,14.76H46.72l-1.41-3.33Zm3.71-8.78L38.79,9.22h5.57Z"/><path class="cls-1" d="M64.44,12.51v2.26H55.56V0h2.49v12.5Z"/><path class="cls-1" d="M76.93,0c3.71,0,5.84,1.83,5.84,5s-2.13,5.27-5.84,5.27h-3.4v4.45H71V0Zm-3.4,8.07h3.29c2.28,0,3.57-1,3.57-3S79.1,2.24,76.82,2.24H73.53Z"/><path class="cls-1" d="M99.77,14.77V8.65H91.94v6.12H89.45V0h2.49V6.42h7.83V0h2.48V14.77Z"/><path class="cls-1" d="M112.44,11.44,111,14.77h-2.59L115,0h2.55L124,14.77H121.3l-1.41-3.33Zm3.71-8.78-2.78,6.56h5.57Z"/><path class="cls-2" d="M21.75,10.8,26.39,0H8.69C11.06,2,16.46,6.45,21.75,10.8Z"/><polygon class="cls-2" points="7.99 0 6.35 0 0 14.77 15.67 14.77 7.99 0"/></g></g></svg>